<mxfile host="app.diagrams.net" modified="2023-06-24T18:38:11.853Z" agent="Mozilla/5.0 (X11; Linux x86_64) AppleWebKit/537.36 (KHTML, like Gecko) Chrome/113.0.0.0 Safari/537.36 OPR/99.0.0.0" etag="pm_n1ui5XnMpAKwIax7f" version="21.5.0" type="github">
  <diagram name="Page-1" id="e56a1550-8fbb-45ad-956c-1786394a9013">
    <mxGraphModel dx="2591" dy="1780" grid="1" gridSize="10" guides="1" tooltips="1" connect="1" arrows="1" fold="1" page="1" pageScale="1" pageWidth="1100" pageHeight="850" background="none" math="0" shadow="0">
      <root>
        <mxCell id="0" />
        <mxCell id="1" parent="0" />
        <mxCell id="yi79t5vUQcOIQiDHJ_99-1" value="&lt;p style=&quot;margin:0px;margin-top:4px;text-align:center;text-decoration:underline;&quot;&gt;&lt;b&gt;urls.py&lt;/b&gt;&lt;/p&gt;&lt;hr&gt;&lt;div style=&quot;background-color: rgb(255, 255, 255); font-family: &amp;quot;Droid Sans Mono&amp;quot;, &amp;quot;monospace&amp;quot;, monospace; font-size: 14px; line-height: 19px;&quot;&gt;&lt;div style=&quot;&quot;&gt;&lt;font color=&quot;#af00db&quot;&gt;from&lt;/font&gt; &lt;span style=&quot;color: rgb(38, 127, 153);&quot;&gt;django&lt;/span&gt;&lt;font color=&quot;#3b3b3b&quot;&gt;.&lt;/font&gt;&lt;span style=&quot;color: rgb(38, 127, 153);&quot;&gt;urls&lt;/span&gt; &lt;span style=&quot;color: rgb(175, 0, 219);&quot;&gt;import&lt;/span&gt; &lt;span style=&quot;color: rgb(121, 94, 38);&quot;&gt;path&lt;/span&gt;&lt;/div&gt;&lt;div style=&quot;color: rgb(59, 59, 59);&quot;&gt;&lt;span style=&quot;color: #af00db;&quot;&gt;from&lt;/span&gt; . &lt;span style=&quot;color: #af00db;&quot;&gt;import&lt;/span&gt; &lt;span style=&quot;color: #267f99;&quot;&gt;views&lt;/span&gt;&lt;/div&gt;&lt;br&gt;&lt;div style=&quot;color: rgb(59, 59, 59);&quot;&gt;&lt;span style=&quot;color: #001080;&quot;&gt;urlpatterns&lt;/span&gt; &lt;span style=&quot;color: #000000;&quot;&gt;=&lt;/span&gt; [&lt;/div&gt;&lt;div style=&quot;color: rgb(59, 59, 59);&quot;&gt;    &lt;span style=&quot;color: #795e26;&quot;&gt;&amp;nbsp; &amp;nbsp; path&lt;/span&gt;(&lt;span style=&quot;color: #a31515;&quot;&gt;&quot;&quot;&lt;/span&gt;, &lt;span style=&quot;color: #267f99;&quot;&gt;views&lt;/span&gt;.&lt;span style=&quot;color: #795e26;&quot;&gt;index&lt;/span&gt;, &lt;span style=&quot;color: #001080;&quot;&gt;name&lt;/span&gt;&lt;span style=&quot;color: #000000;&quot;&gt;=&lt;/span&gt;&lt;span style=&quot;color: #a31515;&quot;&gt;&quot;home&quot;&lt;/span&gt;),&lt;/div&gt;&lt;div style=&quot;color: rgb(59, 59, 59);&quot;&gt;    &amp;nbsp; &amp;nbsp;&lt;span style=&quot;color: rgb(121, 94, 38);&quot;&gt;&amp;nbsp;&lt;/span&gt;&lt;span style=&quot;color: #795e26;&quot;&gt;path&lt;/span&gt;(&lt;span style=&quot;color: #a31515;&quot;&gt;&quot;about_us&quot;&lt;/span&gt;, &lt;span style=&quot;color: #267f99;&quot;&gt;views&lt;/span&gt;.&lt;span style=&quot;color: #795e26;&quot;&gt;about&lt;/span&gt;, &lt;span style=&quot;color: #001080;&quot;&gt;name&lt;/span&gt;&lt;span style=&quot;color: #000000;&quot;&gt;=&lt;/span&gt;&lt;span style=&quot;color: #a31515;&quot;&gt;&quot;about&quot;&lt;/span&gt;),&lt;/div&gt;&lt;div style=&quot;color: rgb(59, 59, 59);&quot;&gt;    &amp;nbsp; &amp;nbsp;&lt;span style=&quot;color: rgb(121, 94, 38);&quot;&gt;&amp;nbsp;&lt;/span&gt;&lt;span style=&quot;color: #795e26;&quot;&gt;path&lt;/span&gt;(&lt;span style=&quot;color: #a31515;&quot;&gt;&quot;create&quot;&lt;/span&gt;, &lt;span style=&quot;color: #267f99;&quot;&gt;views&lt;/span&gt;.&lt;span style=&quot;color: #795e26;&quot;&gt;create&lt;/span&gt;, &lt;span style=&quot;color: #001080;&quot;&gt;name&lt;/span&gt;&lt;span style=&quot;color: #000000;&quot;&gt;=&lt;/span&gt;&lt;span style=&quot;color: #a31515;&quot;&gt;&quot;create&quot;&lt;/span&gt;)&lt;/div&gt;&lt;div style=&quot;color: rgb(59, 59, 59);&quot;&gt;]&lt;/div&gt;&lt;/div&gt;" style="verticalAlign=top;align=left;overflow=fill;fontSize=12;fontFamily=Helvetica;html=1;whiteSpace=wrap;" parent="1" vertex="1">
          <mxGeometry x="315" y="1240" width="450" height="210" as="geometry" />
        </mxCell>
        <mxCell id="yi79t5vUQcOIQiDHJ_99-2" value="&lt;p style=&quot;margin:0px;margin-top:4px;text-align:center;text-decoration:underline;&quot;&gt;&lt;b&gt;views.py&lt;/b&gt;&lt;/p&gt;&lt;hr&gt;&lt;div style=&quot;background-color: rgb(255, 255, 255); font-family: &amp;quot;Droid Sans Mono&amp;quot;, &amp;quot;monospace&amp;quot;, monospace; font-size: 14px; line-height: 19px;&quot;&gt;&lt;div style=&quot;&quot;&gt;&lt;font color=&quot;#af00db&quot;&gt;from&lt;/font&gt; &lt;span style=&quot;color: rgb(38, 127, 153);&quot;&gt;django&lt;/span&gt;&lt;font color=&quot;#3b3b3b&quot;&gt;.&lt;/font&gt;&lt;span style=&quot;color: rgb(38, 127, 153);&quot;&gt;shortcuts&lt;/span&gt; &lt;span style=&quot;color: rgb(175, 0, 219);&quot;&gt;import&lt;/span&gt; &lt;span style=&quot;color: rgb(121, 94, 38);&quot;&gt;render&lt;/span&gt;&lt;font color=&quot;#3b3b3b&quot;&gt;, &lt;/font&gt;&lt;span style=&quot;color: rgb(121, 94, 38);&quot;&gt;redirect&lt;/span&gt;&lt;/div&gt;&lt;div style=&quot;color: rgb(59, 59, 59);&quot;&gt;&lt;span style=&quot;color: #af00db;&quot;&gt;from&lt;/span&gt; &lt;span style=&quot;color: #267f99;&quot;&gt;django&lt;/span&gt;.&lt;span style=&quot;color: #267f99;&quot;&gt;http&lt;/span&gt; &lt;span style=&quot;color: #af00db;&quot;&gt;import&lt;/span&gt; &lt;span style=&quot;color: #267f99;&quot;&gt;HttpResponse&lt;/span&gt;&lt;/div&gt;&lt;div style=&quot;color: rgb(59, 59, 59);&quot;&gt;&lt;span style=&quot;color: #af00db;&quot;&gt;from&lt;/span&gt; .&lt;span style=&quot;color: #267f99;&quot;&gt;models&lt;/span&gt; &lt;span style=&quot;color: #af00db;&quot;&gt;import&lt;/span&gt; &lt;span style=&quot;color: #267f99;&quot;&gt;Task&lt;/span&gt;&lt;/div&gt;&lt;div style=&quot;color: rgb(59, 59, 59);&quot;&gt;&lt;span style=&quot;color: #af00db;&quot;&gt;from&lt;/span&gt; &lt;span style=&quot;color: #267f99;&quot;&gt;main&lt;/span&gt;.&lt;span style=&quot;color: #267f99;&quot;&gt;templates&lt;/span&gt;.&lt;span style=&quot;color: #267f99;&quot;&gt;main&lt;/span&gt;.&lt;span style=&quot;color: #267f99;&quot;&gt;forms&lt;/span&gt; &lt;span style=&quot;color: #af00db;&quot;&gt;import&lt;/span&gt; &lt;span style=&quot;color: #267f99;&quot;&gt;TaskForm&lt;/span&gt;&lt;/div&gt;&lt;br&gt;&lt;div style=&quot;color: rgb(59, 59, 59);&quot;&gt;&lt;span style=&quot;color: #008000;&quot;&gt;# Create your views here.&lt;/span&gt;&lt;/div&gt;&lt;div style=&quot;color: rgb(59, 59, 59);&quot;&gt;&lt;span style=&quot;color: #0000ff;&quot;&gt;def&lt;/span&gt; &lt;span style=&quot;color: #795e26;&quot;&gt;index&lt;/span&gt;(&lt;span style=&quot;color: #001080;&quot;&gt;request&lt;/span&gt;):&lt;/div&gt;&lt;div style=&quot;color: rgb(59, 59, 59);&quot;&gt;    &amp;nbsp; &amp;nbsp;&lt;span style=&quot;color: rgb(0, 16, 128);&quot;&gt;&amp;nbsp;&lt;/span&gt;&lt;span style=&quot;color: #001080;&quot;&gt;task&lt;/span&gt; &lt;span style=&quot;color: #000000;&quot;&gt;=&lt;/span&gt; &lt;span style=&quot;color: #267f99;&quot;&gt;Task&lt;/span&gt;.&lt;span style=&quot;color: #001080;&quot;&gt;objects&lt;/span&gt;.&lt;span style=&quot;color: #795e26;&quot;&gt;all&lt;/span&gt;()&lt;/div&gt;&lt;div style=&quot;color: rgb(59, 59, 59);&quot;&gt;    &amp;nbsp; &amp;nbsp;&lt;span style=&quot;color: rgb(0, 16, 128);&quot;&gt;&amp;nbsp;&lt;/span&gt;&lt;span style=&quot;color: #af00db;&quot;&gt;return&lt;/span&gt; &lt;span style=&quot;color: #795e26;&quot;&gt;render&lt;/span&gt;(&lt;span style=&quot;color: #001080;&quot;&gt;request&lt;/span&gt;, &lt;span style=&quot;color: #a31515;&quot;&gt;&quot;main/index.html&quot;&lt;/span&gt;, {&lt;span style=&quot;color: #a31515;&quot;&gt;&quot;title&quot;&lt;/span&gt;: &lt;span style=&quot;color: #a31515;&quot;&gt;&quot;Главная страница&quot;&lt;/span&gt;, &lt;span style=&quot;color: #a31515;&quot;&gt;&quot;tasks&quot;&lt;/span&gt;: &lt;span style=&quot;color: #001080;&quot;&gt;task&lt;/span&gt;})&lt;/div&gt;&lt;br&gt;&lt;br&gt;&lt;div style=&quot;color: rgb(59, 59, 59);&quot;&gt;&lt;span style=&quot;color: #0000ff;&quot;&gt;def&lt;/span&gt; &lt;span style=&quot;color: #795e26;&quot;&gt;about&lt;/span&gt;(&lt;span style=&quot;color: #001080;&quot;&gt;request&lt;/span&gt;):&lt;/div&gt;&lt;div style=&quot;color: rgb(59, 59, 59);&quot;&gt;    &amp;nbsp; &amp;nbsp;&lt;span style=&quot;color: rgb(0, 16, 128);&quot;&gt;&amp;nbsp;&lt;/span&gt;&lt;span style=&quot;color: #af00db;&quot;&gt;return&lt;/span&gt; &lt;span style=&quot;color: #795e26;&quot;&gt;render&lt;/span&gt;(&lt;span style=&quot;color: #001080;&quot;&gt;request&lt;/span&gt;, &lt;span style=&quot;color: #a31515;&quot;&gt;&quot;main/about.html&quot;&lt;/span&gt;)&lt;/div&gt;&lt;br&gt;&lt;br&gt;&lt;div style=&quot;color: rgb(59, 59, 59);&quot;&gt;&lt;span style=&quot;color: #0000ff;&quot;&gt;def&lt;/span&gt; &lt;span style=&quot;color: #795e26;&quot;&gt;create&lt;/span&gt;(&lt;span style=&quot;color: #001080;&quot;&gt;request&lt;/span&gt;):&lt;/div&gt;&lt;div style=&quot;color: rgb(59, 59, 59);&quot;&gt;    &amp;nbsp; &amp;nbsp;&lt;span style=&quot;color: rgb(0, 16, 128);&quot;&gt;&amp;nbsp;&lt;/span&gt;&lt;span style=&quot;color: #001080;&quot;&gt;error&lt;/span&gt; &lt;span style=&quot;color: #000000;&quot;&gt;=&lt;/span&gt; &lt;span style=&quot;color: #a31515;&quot;&gt;&quot;&quot;&lt;/span&gt;&lt;/div&gt;&lt;br&gt;&lt;div style=&quot;color: rgb(59, 59, 59);&quot;&gt;    &amp;nbsp; &amp;nbsp;&lt;span style=&quot;color: rgb(0, 16, 128);&quot;&gt;&amp;nbsp;&lt;/span&gt;&lt;span style=&quot;color: #af00db;&quot;&gt;if&lt;/span&gt; &lt;span style=&quot;color: #001080;&quot;&gt;request&lt;/span&gt;.method &lt;span style=&quot;color: #000000;&quot;&gt;==&lt;/span&gt; &lt;span style=&quot;color: #a31515;&quot;&gt;&quot;POST&quot;&lt;/span&gt;:&lt;/div&gt;&lt;div style=&quot;color: rgb(59, 59, 59);&quot;&gt;        &amp;nbsp; &amp;nbsp;&lt;span style=&quot;color: rgb(0, 16, 128);&quot;&gt;&amp;nbsp;&lt;/span&gt;&amp;nbsp; &amp;nbsp;&lt;span style=&quot;color: rgb(0, 16, 128);&quot;&gt;&amp;nbsp;&lt;/span&gt;&lt;span style=&quot;color: rgb(0, 16, 128);&quot;&gt;form&lt;/span&gt; &lt;span style=&quot;color: rgb(0, 0, 0);&quot;&gt;=&lt;/span&gt; &lt;span style=&quot;color: rgb(38, 127, 153);&quot;&gt;TaskForm&lt;/span&gt;(&lt;span style=&quot;color: rgb(0, 16, 128);&quot;&gt;request&lt;/span&gt;.POST)&lt;/div&gt;&lt;div style=&quot;color: rgb(59, 59, 59);&quot;&gt;        &amp;nbsp; &amp;nbsp;&lt;span style=&quot;color: rgb(0, 16, 128);&quot;&gt;&amp;nbsp;&lt;/span&gt;&lt;span style=&quot;color: #af00db;&quot;&gt;if&lt;/span&gt; &lt;span style=&quot;color: #001080;&quot;&gt;form&lt;/span&gt;.&lt;span style=&quot;color: #795e26;&quot;&gt;is_valid&lt;/span&gt;(): &lt;/div&gt;&lt;div style=&quot;color: rgb(59, 59, 59);&quot;&gt;            &amp;nbsp; &amp;nbsp;&lt;span style=&quot;color: rgb(0, 16, 128);&quot;&gt;&amp;nbsp;&lt;/span&gt;&amp;nbsp; &amp;nbsp;&lt;span style=&quot;color: rgb(0, 16, 128);&quot;&gt;&amp;nbsp;&lt;/span&gt;&lt;span style=&quot;color: rgb(0, 16, 128);&quot;&gt;form&lt;/span&gt;.&lt;span style=&quot;color: rgb(121, 94, 38);&quot;&gt;save&lt;/span&gt;()&lt;/div&gt;&lt;div style=&quot;color: rgb(59, 59, 59);&quot;&gt;            &amp;nbsp; &amp;nbsp;&lt;span style=&quot;color: rgb(0, 16, 128);&quot;&gt;&amp;nbsp; &amp;nbsp; &amp;nbsp;&lt;/span&gt;&lt;span style=&quot;color: #af00db;&quot;&gt;return&lt;/span&gt; &lt;span style=&quot;color: #795e26;&quot;&gt;redirect&lt;/span&gt;(&lt;span style=&quot;color: #a31515;&quot;&gt;&quot;home&quot;&lt;/span&gt;)&lt;/div&gt;&lt;br&gt;&lt;div style=&quot;color: rgb(59, 59, 59);&quot;&gt;    &amp;nbsp; &amp;nbsp;&lt;span style=&quot;color: rgb(0, 16, 128);&quot;&gt;&amp;nbsp;&lt;/span&gt;&lt;span style=&quot;color: #af00db;&quot;&gt;else&lt;/span&gt;:&lt;/div&gt;&lt;div style=&quot;color: rgb(59, 59, 59);&quot;&gt;        &amp;nbsp; &amp;nbsp;&lt;span style=&quot;color: rgb(0, 16, 128);&quot;&gt;&amp;nbsp;&lt;/span&gt;&amp;nbsp; &amp;nbsp;&lt;span style=&quot;color: rgb(0, 16, 128);&quot;&gt;&amp;nbsp;&lt;/span&gt;&lt;span style=&quot;color: rgb(0, 16, 128);&quot;&gt;error&lt;/span&gt; &lt;span style=&quot;color: rgb(0, 0, 0);&quot;&gt;=&lt;/span&gt; &lt;span style=&quot;color: rgb(163, 21, 21);&quot;&gt;&quot;Форма не верна.&quot;&lt;/span&gt;&lt;/div&gt;&lt;br&gt;&lt;div style=&quot;color: rgb(59, 59, 59);&quot;&gt;    &amp;nbsp; &amp;nbsp;&lt;span style=&quot;color: rgb(0, 16, 128);&quot;&gt;&amp;nbsp;&lt;/span&gt;&lt;span style=&quot;color: #001080;&quot;&gt;form&lt;/span&gt; &lt;span style=&quot;color: #000000;&quot;&gt;=&lt;/span&gt; &lt;span style=&quot;color: #267f99;&quot;&gt;TaskForm&lt;/span&gt;()&lt;/div&gt;&lt;div style=&quot;color: rgb(59, 59, 59);&quot;&gt;    &amp;nbsp; &amp;nbsp;&lt;span style=&quot;color: rgb(0, 16, 128);&quot;&gt;&amp;nbsp;&lt;/span&gt;&lt;span style=&quot;color: #001080;&quot;&gt;context&lt;/span&gt; &lt;span style=&quot;color: #000000;&quot;&gt;=&lt;/span&gt; {&lt;span style=&quot;color: #a31515;&quot;&gt;&quot;form&quot;&lt;/span&gt;:&lt;span style=&quot;color: #001080;&quot;&gt;form&lt;/span&gt;, &lt;span style=&quot;color: #a31515;&quot;&gt;&quot;error&quot;&lt;/span&gt;:  &lt;span style=&quot;color: #001080;&quot;&gt;error&lt;/span&gt;}&lt;/div&gt;&lt;br&gt;&lt;div style=&quot;color: rgb(59, 59, 59);&quot;&gt;    &amp;nbsp; &amp;nbsp;&lt;span style=&quot;color: rgb(0, 16, 128);&quot;&gt;&amp;nbsp;&lt;/span&gt;&lt;span style=&quot;color: #af00db;&quot;&gt;return&lt;/span&gt; &lt;span style=&quot;color: #795e26;&quot;&gt;render&lt;/span&gt;(&lt;span style=&quot;color: #001080;&quot;&gt;request&lt;/span&gt;, &lt;span style=&quot;color: #a31515;&quot;&gt;&quot;main/create.html&quot;&lt;/span&gt;)&lt;/div&gt;&lt;/div&gt;&lt;p style=&quot;margin:0px;margin-left:8px;&quot;&gt;&lt;br&gt;&lt;/p&gt;&lt;p style=&quot;margin:0px;margin-left:8px;&quot;&gt;&lt;br&gt;&lt;/p&gt;&lt;p style=&quot;margin:0px;margin-left:8px;&quot;&gt;&lt;br&gt;&lt;/p&gt;" style="verticalAlign=top;align=left;overflow=fill;fontSize=12;fontFamily=Helvetica;html=1;whiteSpace=wrap;" parent="1" vertex="1">
          <mxGeometry x="170" y="80" width="790" height="680" as="geometry" />
        </mxCell>
        <mxCell id="yi79t5vUQcOIQiDHJ_99-10" value="&lt;p style=&quot;margin:0px;margin-top:4px;text-align:center;text-decoration:underline;&quot;&gt;&lt;b&gt;index.html&lt;/b&gt;&lt;/p&gt;&lt;hr&gt;&lt;div style=&quot;color: rgb(59, 59, 59); background-color: rgb(255, 255, 255); font-family: &amp;quot;Droid Sans Mono&amp;quot;, &amp;quot;monospace&amp;quot;, monospace; font-size: 14px; line-height: 19px;&quot;&gt;&lt;div&gt;{% extends &quot;main/base.html&quot; %}&lt;/div&gt;&lt;br&gt;&lt;br&gt;&lt;div&gt;{% block content %}&lt;/div&gt;&lt;div&gt;&amp;nbsp; &amp;nbsp; &amp;lt;h1&amp;gt;Главная страница&lt;span style=&quot;color: #800000;&quot;&gt;&amp;lt;/h1&amp;gt;&lt;/span&gt;&lt;/div&gt;&lt;div&gt;    &lt;span style=&quot;color: #800000;&quot;&gt;&amp;nbsp; &amp;nbsp; &amp;lt;p&amp;gt;&lt;/span&gt;текст&lt;span style=&quot;color: #800000;&quot;&gt;&amp;lt;/p&amp;gt;&lt;/span&gt;&lt;/div&gt;&lt;br&gt;&lt;div&gt;    {% for el in tasks %}&lt;/div&gt;&lt;div&gt;        &lt;span style=&quot;color: #800000;&quot;&gt;&amp;nbsp; &amp;nbsp; &amp;lt;div&lt;/span&gt; &lt;span style=&quot;color: #e50000;&quot;&gt;class&lt;/span&gt;=&lt;span style=&quot;color: #0000ff;&quot;&gt;&quot;alert alert-warning mt-2&quot;&lt;/span&gt;&lt;span style=&quot;color: #800000;&quot;&gt;&amp;gt;&lt;/span&gt;&lt;/div&gt;&lt;div&gt;            &lt;span style=&quot;color: #800000;&quot;&gt;&amp;nbsp; &amp;nbsp; &amp;nbsp; &amp;nbsp; &amp;lt;h3&amp;gt;&lt;/span&gt;{{el.title}}&lt;span style=&quot;color: #800000;&quot;&gt;&amp;lt;/h3&amp;gt;&lt;/span&gt;&lt;/div&gt;&lt;div&gt;        &lt;span style=&quot;color: #800000;&quot;&gt;&amp;nbsp; &amp;nbsp; &amp;lt;/div&amp;gt;&lt;/span&gt;&lt;/div&gt;&lt;div&gt;    {% endfor %}&lt;/div&gt;&lt;div&gt;{% endblock %}&lt;/div&gt;&lt;/div&gt;" style="verticalAlign=top;align=left;overflow=fill;fontSize=12;fontFamily=Helvetica;html=1;whiteSpace=wrap;" parent="1" vertex="1">
          <mxGeometry x="-850" y="500" width="366.83" height="320" as="geometry" />
        </mxCell>
        <mxCell id="yi79t5vUQcOIQiDHJ_99-11" value="&lt;p style=&quot;margin:0px;margin-top:4px;text-align:center;text-decoration:underline;&quot;&gt;&lt;b&gt;create.html&lt;/b&gt;&lt;/p&gt;&lt;hr&gt;&lt;div style=&quot;background-color: rgb(255, 255, 255); font-family: &amp;quot;Droid Sans Mono&amp;quot;, &amp;quot;monospace&amp;quot;, monospace; font-size: 14px; line-height: 19px;&quot;&gt;&lt;div style=&quot;color: rgb(59, 59, 59);&quot;&gt;{% extends &quot;main/base.html&quot; %}&lt;/div&gt;&lt;br&gt;&lt;br&gt;&lt;div style=&quot;color: rgb(59, 59, 59);&quot;&gt;{% block content %}&lt;/div&gt;&lt;div style=&quot;color: rgb(59, 59, 59);&quot;&gt;&amp;nbsp; &amp;nbsp; &amp;lt;h1 &lt;span style=&quot;color: #e50000;&quot;&gt;class&lt;/span&gt;=&lt;span style=&quot;color: #0000ff;&quot;&gt;&quot;display-4 fw-normal&quot;&lt;/span&gt;&lt;span style=&quot;color: #800000;&quot;&gt;&amp;gt;&lt;/span&gt;Форма&lt;span style=&quot;color: #800000;&quot;&gt;&amp;lt;/h1&amp;gt;&lt;/span&gt;&lt;/div&gt;&lt;div style=&quot;color: rgb(59, 59, 59);&quot;&gt;    &lt;span style=&quot;color: #800000;&quot;&gt;&amp;nbsp; &amp;nbsp; &amp;lt;form&lt;/span&gt; &lt;span style=&quot;color: #e50000;&quot;&gt;method&lt;/span&gt;=&lt;span style=&quot;color: #0000ff;&quot;&gt;&quot;post&quot;&lt;/span&gt;&lt;span style=&quot;color: #800000;&quot;&gt;&amp;gt;&lt;/span&gt;&lt;/div&gt;&lt;div style=&quot;color: rgb(59, 59, 59);&quot;&gt;&amp;nbsp; &amp;nbsp; {% csrf_token %}&lt;/div&gt;&lt;div style=&quot;&quot;&gt;        &lt;span style=&quot;color: rgb(0, 128, 0);&quot;&gt;&amp;nbsp; &amp;nbsp; &lt;/span&gt;{{ form.title }}&amp;lt;br&amp;gt;&lt;/div&gt;&lt;div style=&quot;&quot;&gt;        &amp;nbsp; &amp;nbsp; {{ form.task }}&amp;lt;br&amp;gt;&lt;/div&gt;&lt;div style=&quot;color: rgb(59, 59, 59);&quot;&gt;&lt;span style=&quot;color: rgb(128, 0, 0);&quot;&gt;&amp;nbsp; &amp;nbsp; &amp;lt;button&lt;/span&gt; &lt;span style=&quot;color: rgb(229, 0, 0);&quot;&gt;type&lt;/span&gt;=&lt;span style=&quot;color: rgb(0, 0, 255);&quot;&gt;&quot;submit&quot;&lt;/span&gt; &lt;span style=&quot;color: rgb(229, 0, 0);&quot;&gt;class&lt;/span&gt;=&lt;span style=&quot;color: rgb(0, 0, 255);&quot;&gt;&quot;btn btn-success&quot;&lt;/span&gt;&lt;span style=&quot;color: rgb(128, 0, 0);&quot;&gt;&amp;gt;&lt;/span&gt;Добавить&lt;span style=&quot;color: rgb(128, 0, 0);&quot;&gt;&amp;lt;/button&amp;gt;&lt;/span&gt;&lt;br&gt;&lt;/div&gt;&lt;div style=&quot;color: rgb(59, 59, 59);&quot;&gt;        &lt;span style=&quot;color: #800000;&quot;&gt;&amp;nbsp; &amp;nbsp; &amp;lt;span&amp;gt;&lt;/span&gt;{{ error }}&lt;span style=&quot;color: #800000;&quot;&gt;&amp;lt;/span&amp;gt;&lt;/span&gt;&lt;/div&gt;&lt;div style=&quot;color: rgb(59, 59, 59);&quot;&gt;    &lt;span style=&quot;color: #800000;&quot;&gt;&amp;nbsp; &amp;nbsp; &amp;lt;/form&amp;gt;&lt;/span&gt;&lt;/div&gt;&lt;div style=&quot;color: rgb(59, 59, 59);&quot;&gt;{% endblock %}&lt;/div&gt;&lt;/div&gt;" style="verticalAlign=top;align=left;overflow=fill;fontSize=12;fontFamily=Helvetica;html=1;whiteSpace=wrap;" parent="1" vertex="1">
          <mxGeometry x="-850" y="80" width="580" height="370" as="geometry" />
        </mxCell>
        <mxCell id="yi79t5vUQcOIQiDHJ_99-30" value="&lt;p style=&quot;margin:0px;margin-top:4px;text-align:center;text-decoration:underline;&quot;&gt;&lt;b&gt;models.py&lt;/b&gt;&lt;/p&gt;&lt;hr&gt;&lt;div style=&quot;background-color: rgb(255, 255, 255); font-family: &amp;quot;Droid Sans Mono&amp;quot;, &amp;quot;monospace&amp;quot;, monospace; font-size: 14px; line-height: 19px;&quot;&gt;&lt;div style=&quot;&quot;&gt;&lt;font color=&quot;#af00db&quot;&gt;from&lt;/font&gt; &lt;span style=&quot;color: rgb(38, 127, 153);&quot;&gt;django&lt;/span&gt;&lt;font color=&quot;#3b3b3b&quot;&gt;.&lt;/font&gt;&lt;span style=&quot;color: rgb(38, 127, 153);&quot;&gt;db&lt;/span&gt; &lt;span style=&quot;color: rgb(175, 0, 219);&quot;&gt;import&lt;/span&gt; &lt;span style=&quot;color: rgb(38, 127, 153);&quot;&gt;models&lt;/span&gt;&lt;/div&gt;&lt;br&gt;&lt;div style=&quot;color: rgb(59, 59, 59);&quot;&gt;&lt;span style=&quot;color: #008000;&quot;&gt;# Create your models here.&lt;/span&gt;&lt;/div&gt;&lt;div style=&quot;color: rgb(59, 59, 59);&quot;&gt;&lt;span style=&quot;color: #0000ff;&quot;&gt;class&lt;/span&gt; &lt;span style=&quot;color: #267f99;&quot;&gt;Task&lt;/span&gt;(&lt;span style=&quot;color: #267f99;&quot;&gt;models&lt;/span&gt;.&lt;span style=&quot;color: #267f99;&quot;&gt;Model&lt;/span&gt;):&lt;/div&gt;&lt;div style=&quot;color: rgb(59, 59, 59);&quot;&gt;    &lt;span style=&quot;color: #0000ff;&quot;&gt;&amp;nbsp; &amp;nbsp; class&lt;/span&gt; &lt;span style=&quot;color: #267f99;&quot;&gt;Meta&lt;/span&gt;:&lt;/div&gt;&lt;div style=&quot;color: rgb(59, 59, 59);&quot;&gt;        &amp;nbsp; &amp;nbsp;&lt;span style=&quot;color: rgb(0, 0, 255);&quot;&gt;&amp;nbsp;&lt;/span&gt;&lt;span style=&quot;color: #001080;&quot;&gt;verbose_name&lt;/span&gt; &lt;span style=&quot;color: #000000;&quot;&gt;=&lt;/span&gt; &lt;span style=&quot;color: #a31515;&quot;&gt;&quot;Задача&quot;&lt;/span&gt;&lt;/div&gt;&lt;div style=&quot;color: rgb(59, 59, 59);&quot;&gt;        &amp;nbsp; &amp;nbsp;&lt;span style=&quot;color: rgb(0, 0, 255);&quot;&gt;&amp;nbsp;&lt;/span&gt;&lt;span style=&quot;color: #001080;&quot;&gt;verbose_name_plural&lt;/span&gt; &lt;span style=&quot;color: #000000;&quot;&gt;=&lt;/span&gt; &lt;span style=&quot;color: #a31515;&quot;&gt;&quot;Задачи&quot;&lt;/span&gt;&lt;/div&gt;&lt;div style=&quot;color: rgb(59, 59, 59);&quot;&gt;    &lt;/div&gt;&lt;div style=&quot;color: rgb(59, 59, 59);&quot;&gt;    &amp;nbsp; &amp;nbsp;&lt;span style=&quot;color: rgb(0, 0, 255);&quot;&gt;&amp;nbsp;&lt;/span&gt;&lt;span style=&quot;color: #001080;&quot;&gt;title&lt;/span&gt; &lt;span style=&quot;color: #000000;&quot;&gt;=&lt;/span&gt; &lt;span style=&quot;color: #267f99;&quot;&gt;models&lt;/span&gt;.&lt;span style=&quot;color: #267f99;&quot;&gt;CharField&lt;/span&gt;(&lt;span style=&quot;color: #a31515;&quot;&gt;&quot;Название&quot;&lt;/span&gt;, &lt;span style=&quot;color: #001080;&quot;&gt;max_length&lt;/span&gt;&lt;span style=&quot;color: #000000;&quot;&gt;=&lt;/span&gt;&lt;span style=&quot;color: #098658;&quot;&gt;50&lt;/span&gt;)&lt;/div&gt;&lt;div style=&quot;color: rgb(59, 59, 59);&quot;&gt;    &amp;nbsp; &amp;nbsp;&lt;span style=&quot;color: rgb(0, 0, 255);&quot;&gt;&amp;nbsp;&lt;/span&gt;&lt;span style=&quot;color: #001080;&quot;&gt;task&lt;/span&gt; &lt;span style=&quot;color: #000000;&quot;&gt;=&lt;/span&gt; &lt;span style=&quot;color: #267f99;&quot;&gt;models&lt;/span&gt;.&lt;span style=&quot;color: #267f99;&quot;&gt;TextField&lt;/span&gt;(&lt;span style=&quot;color: #a31515;&quot;&gt;&quot;Описание&quot;&lt;/span&gt;)&lt;/div&gt;&lt;br&gt;&lt;div style=&quot;color: rgb(59, 59, 59);&quot;&gt;    &lt;span style=&quot;color: #0000ff;&quot;&gt;&amp;nbsp; &amp;nbsp; def&lt;/span&gt; &lt;span style=&quot;color: #795e26;&quot;&gt;__str__&lt;/span&gt;(&lt;span style=&quot;color: #001080;&quot;&gt;self&lt;/span&gt;):&lt;/div&gt;&lt;div style=&quot;color: rgb(59, 59, 59);&quot;&gt;        &amp;nbsp; &amp;nbsp;&lt;span style=&quot;color: rgb(0, 0, 255);&quot;&gt;&amp;nbsp; &amp;nbsp; &amp;nbsp;&lt;/span&gt;&lt;span style=&quot;color: #af00db;&quot;&gt;return&lt;/span&gt; &lt;span style=&quot;color: #001080;&quot;&gt;self&lt;/span&gt;.&lt;span style=&quot;color: #001080;&quot;&gt;title&lt;/span&gt;&lt;/div&gt;&lt;/div&gt;" style="verticalAlign=top;align=left;overflow=fill;fontSize=12;fontFamily=Helvetica;html=1;whiteSpace=wrap;" parent="1" vertex="1">
          <mxGeometry x="1240" y="80" width="466.83" height="310" as="geometry" />
        </mxCell>
        <mxCell id="yi79t5vUQcOIQiDHJ_99-31" value="&lt;p style=&quot;margin:0px;margin-top:4px;text-align:center;text-decoration:underline;&quot;&gt;&lt;b&gt;admin.py&lt;/b&gt;&lt;/p&gt;&lt;hr&gt;&lt;div style=&quot;background-color: rgb(255, 255, 255); font-family: &amp;quot;Droid Sans Mono&amp;quot;, &amp;quot;monospace&amp;quot;, monospace; font-size: 14px; line-height: 19px;&quot;&gt;&lt;div style=&quot;&quot;&gt;&lt;font color=&quot;#af00db&quot;&gt;from&lt;/font&gt; &lt;span style=&quot;color: rgb(38, 127, 153);&quot;&gt;django&lt;/span&gt;&lt;font color=&quot;#3b3b3b&quot;&gt;.&lt;/font&gt;&lt;span style=&quot;color: rgb(38, 127, 153);&quot;&gt;contrib&lt;/span&gt; &lt;span style=&quot;color: rgb(175, 0, 219);&quot;&gt;import&lt;/span&gt; &lt;span style=&quot;color: rgb(38, 127, 153);&quot;&gt;admin&lt;/span&gt;&lt;/div&gt;&lt;div style=&quot;color: rgb(59, 59, 59);&quot;&gt;&lt;span style=&quot;color: #af00db;&quot;&gt;from&lt;/span&gt; .&lt;span style=&quot;color: #267f99;&quot;&gt;models&lt;/span&gt; &lt;span style=&quot;color: #af00db;&quot;&gt;import&lt;/span&gt; &lt;span style=&quot;color: #267f99;&quot;&gt;Task&lt;/span&gt;&lt;/div&gt;&lt;br&gt;&lt;div style=&quot;color: rgb(59, 59, 59);&quot;&gt;&lt;span style=&quot;color: #008000;&quot;&gt;# Register your models here.&lt;/span&gt;&lt;/div&gt;&lt;div style=&quot;color: rgb(59, 59, 59);&quot;&gt;&lt;span style=&quot;color: #267f99;&quot;&gt;admin&lt;/span&gt;.&lt;span style=&quot;color: #001080;&quot;&gt;site&lt;/span&gt;.&lt;span style=&quot;color: #795e26;&quot;&gt;register&lt;/span&gt;(&lt;span style=&quot;color: #267f99;&quot;&gt;Task&lt;/span&gt;)&lt;/div&gt;&lt;/div&gt;" style="verticalAlign=top;align=left;overflow=fill;fontSize=12;fontFamily=Helvetica;html=1;whiteSpace=wrap;" parent="1" vertex="1">
          <mxGeometry x="335" y="930" width="410" height="230" as="geometry" />
        </mxCell>
        <mxCell id="twKU28QJjfa9Xpo9LUrA-1" value="&lt;p style=&quot;margin:0px;margin-top:4px;text-align:center;text-decoration:underline;&quot;&gt;&lt;b&gt;forms.html&lt;/b&gt;&lt;/p&gt;&lt;hr&gt;&lt;div style=&quot;background-color: rgb(255, 255, 255); font-family: &amp;quot;Droid Sans Mono&amp;quot;, &amp;quot;monospace&amp;quot;, monospace; font-size: 14px; line-height: 19px;&quot;&gt;&lt;div style=&quot;&quot;&gt;&lt;font color=&quot;#af00db&quot;&gt;from&lt;/font&gt;&lt;font color=&quot;#3b3b3b&quot;&gt; ...&lt;/font&gt;&lt;span style=&quot;color: rgb(38, 127, 153);&quot;&gt;models&lt;/span&gt; &lt;span style=&quot;color: rgb(175, 0, 219);&quot;&gt;import&lt;/span&gt; &lt;span style=&quot;color: rgb(38, 127, 153);&quot;&gt;Task&lt;/span&gt;&lt;/div&gt;&lt;div style=&quot;color: rgb(59, 59, 59);&quot;&gt;&lt;span style=&quot;color: #af00db;&quot;&gt;from&lt;/span&gt; &lt;span style=&quot;color: #267f99;&quot;&gt;django&lt;/span&gt;.&lt;span style=&quot;color: #267f99;&quot;&gt;forms&lt;/span&gt; &lt;span style=&quot;color: #af00db;&quot;&gt;import&lt;/span&gt; &lt;span style=&quot;color: #267f99;&quot;&gt;ModelForm&lt;/span&gt;, &lt;span style=&quot;color: #267f99;&quot;&gt;TextInput&lt;/span&gt;, &lt;span style=&quot;color: #267f99;&quot;&gt;Textarea&lt;/span&gt;&lt;/div&gt;&lt;br&gt;&lt;div style=&quot;color: rgb(59, 59, 59);&quot;&gt;&lt;span style=&quot;color: #0000ff;&quot;&gt;class&lt;/span&gt; &lt;span style=&quot;color: #267f99;&quot;&gt;TaskForm&lt;/span&gt;(&lt;span style=&quot;color: #267f99;&quot;&gt;ModelForm&lt;/span&gt;):&lt;/div&gt;&lt;div style=&quot;color: rgb(59, 59, 59);&quot;&gt;    &lt;span style=&quot;color: #0000ff;&quot;&gt;&amp;nbsp; &amp;nbsp; class&lt;/span&gt; &lt;span style=&quot;color: #267f99;&quot;&gt;Meta&lt;/span&gt;:&lt;/div&gt;&lt;div style=&quot;color: rgb(59, 59, 59);&quot;&gt;        &lt;span style=&quot;color: #001080;&quot;&gt;&amp;nbsp; &amp;nbsp; model&lt;/span&gt; &lt;span style=&quot;color: #000000;&quot;&gt;=&lt;/span&gt; &lt;span style=&quot;color: #267f99;&quot;&gt;Task&lt;/span&gt;&lt;/div&gt;&lt;div style=&quot;color: rgb(59, 59, 59);&quot;&gt;        &lt;span style=&quot;color: #001080;&quot;&gt;&amp;nbsp; &amp;nbsp; fields&lt;/span&gt; &lt;span style=&quot;color: #000000;&quot;&gt;=&lt;/span&gt; [&lt;span style=&quot;color: #a31515;&quot;&gt;&quot;title&quot;&lt;/span&gt;, &lt;span style=&quot;color: #a31515;&quot;&gt;&quot;task&quot;&lt;/span&gt;]&lt;/div&gt;&lt;div style=&quot;color: rgb(59, 59, 59);&quot;&gt;        &lt;span style=&quot;color: #001080;&quot;&gt;&amp;nbsp; &amp;nbsp; widgets&lt;/span&gt; &lt;span style=&quot;color: #000000;&quot;&gt;=&lt;/span&gt; {&lt;/div&gt;&lt;div style=&quot;color: rgb(59, 59, 59);&quot;&gt;            &lt;span style=&quot;color: #a31515;&quot;&gt;&amp;nbsp; &amp;nbsp; &amp;nbsp; &amp;nbsp; &quot;title&quot;&lt;/span&gt;: &lt;span style=&quot;color: #267f99;&quot;&gt;TextInput&lt;/span&gt;(&lt;span style=&quot;color: #001080;&quot;&gt;attrs&lt;/span&gt;&lt;span style=&quot;color: #000000;&quot;&gt;=&lt;/span&gt;{&lt;span style=&quot;color: #a31515;&quot;&gt;&quot;class&quot;&lt;/span&gt;: &lt;span style=&quot;color: #a31515;&quot;&gt;&quot;form-control&quot;&lt;/span&gt;, &lt;span style=&quot;color: #a31515;&quot;&gt;&quot;placeholder&quot;&lt;/span&gt;: &lt;span style=&quot;color: #a31515;&quot;&gt;&quot;Введите название&quot;&lt;/span&gt;}),&amp;nbsp; &amp;nbsp; &amp;nbsp; &amp;nbsp; &amp;nbsp;&amp;nbsp;&lt;span style=&quot;color: #a31515;&quot;&gt;&quot;task&quot;&lt;/span&gt;: &lt;span style=&quot;color: #267f99;&quot;&gt;Textarea&lt;/span&gt;(&lt;span style=&quot;color: #001080;&quot;&gt;attrs&lt;/span&gt;&lt;span style=&quot;color: #000000;&quot;&gt;=&lt;/span&gt;{&lt;span style=&quot;color: #a31515;&quot;&gt;&quot;class&quot;&lt;/span&gt;: &lt;span style=&quot;color: #a31515;&quot;&gt;&quot;form-control&quot;&lt;/span&gt;, &lt;span style=&quot;color: #a31515;&quot;&gt;&quot;placeholder&quot;&lt;/span&gt;: &lt;span style=&quot;color: #a31515;&quot;&gt;&quot;Введите название&quot;&lt;/span&gt;})&lt;/div&gt;&lt;div style=&quot;color: rgb(59, 59, 59);&quot;&gt;&amp;nbsp; &amp;nbsp; }&lt;/div&gt;&lt;/div&gt;" style="verticalAlign=top;align=left;overflow=fill;fontSize=12;fontFamily=Helvetica;html=1;whiteSpace=wrap;" vertex="1" parent="1">
          <mxGeometry x="1240" y="480" width="810" height="270" as="geometry" />
        </mxCell>
        <mxCell id="twKU28QJjfa9Xpo9LUrA-6" value="&lt;font style=&quot;font-size: 38px;&quot;&gt;&lt;b&gt;VIEW&lt;/b&gt;&lt;/font&gt;" style="text;html=1;strokeColor=none;fillColor=none;align=center;verticalAlign=middle;whiteSpace=wrap;rounded=0;" vertex="1" parent="1">
          <mxGeometry x="-625" y="10" width="150" height="50" as="geometry" />
        </mxCell>
        <mxCell id="twKU28QJjfa9Xpo9LUrA-7" value="&lt;font style=&quot;font-size: 38px;&quot;&gt;&lt;b&gt;CONTROLLER&lt;/b&gt;&lt;/font&gt;" style="text;html=1;strokeColor=none;fillColor=none;align=center;verticalAlign=middle;whiteSpace=wrap;rounded=0;" vertex="1" parent="1">
          <mxGeometry x="475" y="10" width="150" height="50" as="geometry" />
        </mxCell>
        <mxCell id="twKU28QJjfa9Xpo9LUrA-8" value="&lt;font style=&quot;font-size: 38px;&quot;&gt;&lt;b&gt;MODEL&lt;/b&gt;&lt;/font&gt;" style="text;html=1;strokeColor=none;fillColor=none;align=center;verticalAlign=middle;whiteSpace=wrap;rounded=0;" vertex="1" parent="1">
          <mxGeometry x="1575" y="10" width="150" height="50" as="geometry" />
        </mxCell>
      </root>
    </mxGraphModel>
  </diagram>
</mxfile>
